<svg xmlns="http://www.w3.org/2000/svg" viewBox="0 0 32 32" fill="none">
  <defs>
    <linearGradient id="blueGrad" x1="0%" y1="0%" x2="100%" y2="100%">
      <stop offset="0%" style="stop-color:#2563eb"/>
      <stop offset="100%" style="stop-color:#1d4ed8"/>
    </linearGradient>
  </defs>
  <!-- Background with rounded corners -->
  <rect x="0" y="0" width="32" height="32" rx="8" fill="url(#blueGrad)"/>
  <!-- Cog/Settings icon -->
  <g transform="translate(4, 4)" stroke="white" stroke-width="2" stroke-linecap="round" stroke-linejoin="round" fill="none">
    <path d="M12 20a8 8 0 1 0 0-16 8 8 0 0 0 0 16Z"/>
    <path d="M12 14a2 2 0 1 0 0-4 2 2 0 0 0 0 4Z"/>
    <path d="M12 2v2"/>
    <path d="M12 20v2"/>
    <path d="M4.93 4.93l1.41 1.41"/>
    <path d="M17.66 17.66l1.41 1.41"/>
    <path d="M2 12h2"/>
    <path d="M20 12h2"/>
    <path d="M6.34 17.66l-1.41 1.41"/>
    <path d="M19.07 4.93l-1.41 1.41"/>
  </g>
</svg>
